<svg width="20" height="20" viewBox="0 0 20 20" fill="none" xmlns="http://www.w3.org/2000/svg">
<path fill-rule="evenodd" clip-rule="evenodd" d="M4.0403 2.30917C5.98585 2.02311 7.97594 1.875 10.0002 1.875C12.0244 1.875 14.0143 2.02308 15.9597 2.30909C17.6083 2.55147 18.75 3.99537 18.75 5.61713V10.6329C18.75 12.2546 17.6083 13.6985 15.9596 13.9409C15.0045 14.0813 14.0386 14.1885 13.0632 14.2612C12.9595 14.269 12.8692 14.3229 12.8159 14.4029L10.52 17.8467C10.4041 18.0206 10.209 18.125 10 18.125C9.79103 18.125 9.59588 18.0206 9.47997 17.8467L7.1841 14.4029C7.13075 14.3229 7.04044 14.2689 6.93673 14.2612C5.96132 14.1885 4.99543 14.0813 4.0403 13.9408C2.3917 13.6984 1.25 12.2545 1.25 10.6328V5.6172C1.25 3.99546 2.3917 2.55157 4.0403 2.30917ZM5.625 6.875C5.625 6.52982 5.90482 6.25 6.25 6.25H13.75C14.0952 6.25 14.375 6.52982 14.375 6.875C14.375 7.22018 14.0952 7.5 13.75 7.5H6.25C5.90482 7.5 5.625 7.22018 5.625 6.875ZM6.25 8.75C5.90482 8.75 5.625 9.02982 5.625 9.375C5.625 9.72018 5.90482 10 6.25 10H10C10.3452 10 10.625 9.72018 10.625 9.375C10.625 9.02982 10.3452 8.75 10 8.75H6.25Z" fill="#02021C"/>
</svg>
