<svg width="24" height="24" viewBox="0 0 24 24" fill="none" xmlns="http://www.w3.org/2000/svg">
<path fill-rule="evenodd" clip-rule="evenodd" d="M10.7881 3.21068C11.2365 2.13274 12.7635 2.13273 13.2119 3.21068L15.2939 8.2164L20.6979 8.64964C21.8617 8.74293 22.3336 10.1952 21.4469 10.9547L17.3296 14.4817L18.5875 19.7551C18.8584 20.8908 17.623 21.7883 16.6267 21.1798L12 18.3538L7.37335 21.1798C6.37703 21.7883 5.14163 20.8908 5.41252 19.7551L6.67043 14.4817L2.55309 10.9547C1.66645 10.1952 2.13832 8.74294 3.30206 8.64964L8.70615 8.2164L10.7881 3.21068ZM12 4.20296L10.0471 8.89818C9.85814 9.35262 9.43077 9.66312 8.94017 9.70245L3.87129 10.1088L7.73325 13.417C8.10703 13.7372 8.27027 14.2396 8.15607 14.7183L6.97618 19.6647L11.3159 17.014C11.7359 16.7575 12.2641 16.7575 12.6841 17.014L17.0238 19.6647L15.8439 14.7183C15.7297 14.2396 15.893 13.7372 16.2668 13.417L20.1287 10.1088L15.0598 9.70245C14.5692 9.66312 14.1419 9.35262 13.9529 8.89818L12 4.20296Z" fill="#02021C"/>
</svg>
