<svg width="24" height="24" viewBox="0 0 24 24" fill="none" xmlns="http://www.w3.org/2000/svg">
<path fill-rule="evenodd" clip-rule="evenodd" d="M12 3.75C7.44365 3.75 3.75 7.44365 3.75 12C3.75 14.1739 4.59004 16.1508 5.96491 17.625C7.4701 16.0109 9.6171 15 12 15C14.3829 15 16.5299 16.0109 18.0351 17.625C19.41 16.1508 20.25 14.1739 20.25 12C20.25 7.44365 16.5563 3.75 12 3.75ZM16.9169 18.6254C15.685 17.316 13.9379 16.5 12 16.5C10.0621 16.5 8.31496 17.316 7.08307 18.6254C8.45636 19.6464 10.157 20.25 12 20.25C13.843 20.25 15.5436 19.6464 16.9169 18.6254ZM2.25 12C2.25 6.61522 6.61522 2.25 12 2.25C17.3848 2.25 21.75 6.61522 21.75 12C21.75 14.8973 20.4853 17.5003 18.4802 19.285C16.7581 20.8178 14.487 21.75 12 21.75C9.51298 21.75 7.24187 20.8178 5.51981 19.285C3.51473 17.5003 2.25 14.8973 2.25 12ZM12 7.5C10.7574 7.5 9.75 8.50736 9.75 9.75C9.75 10.9926 10.7574 12 12 12C13.2426 12 14.25 10.9926 14.25 9.75C14.25 8.50736 13.2426 7.5 12 7.5ZM8.25 9.75C8.25 7.67893 9.92893 6 12 6C14.0711 6 15.75 7.67893 15.75 9.75C15.75 11.8211 14.0711 13.5 12 13.5C9.92893 13.5 8.25 11.8211 8.25 9.75Z" fill="#02021C"/>
</svg>
