<svg width="24" height="24" viewBox="0 0 24 24" fill="none" xmlns="http://www.w3.org/2000/svg">
<path d="M21.7214 12.7518C21.7404 12.5037 21.75 12.2529 21.75 12C21.75 10.4758 21.4003 9.03334 20.7767 7.74841C19.5396 8.92276 18.0671 9.85152 16.4374 10.4566C16.4789 10.9656 16.5 11.4803 16.5 12C16.5 13.1012 16.4051 14.1802 16.2229 15.2293C18.2163 14.7277 20.0717 13.8792 21.7214 12.7518Z" fill="#02021C"/>
<path d="M14.6343 15.5501C14.874 14.4044 15 13.2169 15 12C15 11.6316 14.9885 11.2659 14.9657 10.9033C14.0141 11.13 13.021 11.25 12 11.25C10.979 11.25 9.98594 11.13 9.0343 10.9033C9.01155 11.2659 9 11.6316 9 12C9 13.2169 9.12601 14.4044 9.3657 15.5501C10.2246 15.6817 11.1043 15.75 12 15.75C12.8957 15.75 13.7754 15.6817 14.6343 15.5501Z" fill="#02021C"/>
<path d="M9.77224 17.119C10.5028 17.2055 11.2462 17.25 12 17.25C12.7538 17.25 13.4972 17.2055 14.2278 17.119C13.714 18.7747 12.9575 20.3235 12 21.724C11.0425 20.3235 10.286 18.7747 9.77224 17.119Z" fill="#02021C"/>
<path d="M7.77706 15.2293C7.59493 14.1802 7.5 13.1012 7.5 12C7.5 11.4803 7.52114 10.9656 7.56261 10.4566C5.93286 9.85152 4.46039 8.92276 3.22333 7.74841C2.59973 9.03334 2.25 10.4758 2.25 12C2.25 12.2529 2.25964 12.5037 2.27856 12.7518C3.92826 13.8792 5.78374 14.7277 7.77706 15.2293Z" fill="#02021C"/>
<path d="M21.3561 14.7525C20.3404 18.2105 17.4597 20.8706 13.8776 21.5694C14.744 20.1123 15.4185 18.5279 15.8664 16.8509C17.8263 16.44 19.6736 15.7232 21.3561 14.7525Z" fill="#02021C"/>
<path d="M2.64395 14.7525C4.32642 15.7232 6.17372 16.44 8.13356 16.8509C8.58146 18.5279 9.25602 20.1123 10.1224 21.5694C6.54027 20.8706 3.65964 18.2105 2.64395 14.7525Z" fill="#02021C"/>
<path d="M13.8776 2.43062C16.3991 2.92251 18.5731 4.38626 19.9937 6.41605C18.9351 7.4849 17.6637 8.34257 16.2483 8.92023C15.862 6.58288 15.0435 4.39138 13.8776 2.43062Z" fill="#02021C"/>
<path d="M12 2.27594C13.4287 4.36554 14.4097 6.78543 14.805 9.3975C13.9083 9.62762 12.9684 9.74999 12 9.74999C11.0316 9.74999 10.0917 9.62762 9.19503 9.3975C9.5903 6.78543 10.5713 4.36554 12 2.27594Z" fill="#02021C"/>
<path d="M10.1224 2.43061C8.95648 4.39138 8.13795 6.58288 7.75171 8.92023C6.33629 8.34257 5.06489 7.4849 4.00635 6.41605C5.42689 4.38626 7.60085 2.92251 10.1224 2.43061Z" fill="#02021C"/>
</svg>
